# xmcd
#
# Track frame offsets: 
#        150
#        18338
#        32381
#        47543
#        61982
#        77694
#        93819
#        108873
#        124938
#        140847
#        155865
#        171696
#        190735
#        208921
#        223356
#        238375
#
# Disc length: 3378 seconds
#
# Revision: 1
# Processed by: cddbd v1.5.2PL0 Copyright (c) Steve Scherf et al.
# Submitted via: ExactAudioCopy v1.3
#
DISCID=ec0d3010
DTITLE=Mark Ashley - I Will Not Forget You
DYEAR=2017
DGENRE=Pop
TTITLE0=Jenny Come Home
TTITLE1=Please Believe Me
TTITLE2=Breath Of An Angel
TTITLE3=I Will Not Forget You
TTITLE4=A Night Of Desire
TTITLE5=You're My One Love
TTITLE6=Words
TTITLE7=Pulse Of Time
TTITLE8=Tragedy Of Love
TTITLE9=Hot Like Fire
TTITLE10=Face On The Wall
TTITLE11=Heart To Heart
TTITLE12=Jenny Come Home (Karaoke Version)
TTITLE13=I Will Not Forget You (Karaoke Version)
TTITLE14=Hot Like Fire (Karaoke Version)
TTITLE15=Breath Of An Angel (Karaoke Version)
EXTD=
EXTT0=
EXTT1=
EXTT2=
EXTT3=
EXTT4=
EXTT5=
EXTT6=
EXTT7=
EXTT8=
EXTT9=
EXTT10=
EXTT11=
EXTT12=
EXTT13=
EXTT14=
EXTT15=
PLAYORDER=
